<mxfile host="app.diagrams.net" modified="2024-07-09T05:30:26.731Z" agent="Mozilla/5.0 (Macintosh; Intel Mac OS X 10_15_7) AppleWebKit/537.36 (KHTML, like Gecko) Chrome/126.0.0.0 Safari/537.36" version="24.6.4" etag="NtsJsg6ZrVXLfgO3Zw1f" type="github">
  <diagram name="Page-1" id="A__zvCagF0eY3WS7tyB6">
    <mxGraphModel>
      <root>
        <mxCell id="0" />
        <mxCell id="1" parent="0" />
      </root>
    </mxGraphModel>
  </diagram>
</mxfile>
